<svg width="463" height="177" viewBox="0 0 463 177" fill="none" xmlns="http://www.w3.org/2000/svg">
<path d="M0.880737 2.34379V0.45459H12.1378V2.34379H7.59949V15H5.41199V2.34379H0.880737Z" fill="white"/>
<path d="M16.5765 8.52277V15H14.453V0.45459H16.5481V5.86652H16.6831C16.9388 5.2794 17.3294 4.81302 17.8549 4.46737C18.3805 4.12173 19.0671 3.94891 19.9146 3.94891C20.6627 3.94891 21.3161 4.10279 21.8748 4.41056C22.4383 4.71832 22.8739 5.1776 23.1817 5.7884C23.4942 6.39446 23.6504 7.15203 23.6504 8.06112V15H21.5268V8.31681C21.5268 7.51662 21.3209 6.89635 20.9089 6.45601C20.497 6.01093 19.9241 5.7884 19.1902 5.7884C18.6883 5.7884 18.2385 5.89493 17.8407 6.108C17.4477 6.32107 17.1376 6.63357 16.9103 7.0455C16.6878 7.4527 16.5765 7.94512 16.5765 8.52277Z" fill="white"/>
<path d="M31.1839 15.2202C30.1091 15.2202 29.1834 14.9906 28.4069 14.5313C27.6351 14.0673 27.0386 13.4162 26.6171 12.5782C26.2005 11.7354 25.9921 10.7482 25.9921 9.61652C25.9921 8.4991 26.2005 7.51425 26.6171 6.66198C27.0386 5.8097 27.6257 5.14446 28.3785 4.66624C29.1361 4.18802 30.0215 3.94891 31.0348 3.94891C31.6503 3.94891 32.2469 4.05071 32.8245 4.25431C33.4022 4.4579 33.9207 4.77751 34.3799 5.21311C34.8392 5.64872 35.2014 6.21453 35.4666 6.91056C35.7317 7.60184 35.8643 8.44228 35.8643 9.43186V10.1847H27.1924V8.59379H33.7833C33.7833 8.03508 33.6697 7.54029 33.4424 7.10942C33.2152 6.67381 32.8956 6.33054 32.4836 6.07959C32.0764 5.82864 31.5982 5.70317 31.049 5.70317C30.4524 5.70317 29.9315 5.84995 29.4865 6.14351C29.0461 6.43234 28.7052 6.81112 28.4637 7.27987C28.227 7.74389 28.1086 8.24815 28.1086 8.79266V10.0356C28.1086 10.7647 28.2365 11.385 28.4921 11.8964C28.7526 12.4077 29.1148 12.7983 29.5788 13.0682C30.0428 13.3334 30.585 13.466 31.2052 13.466C31.6077 13.466 31.9746 13.4091 32.3061 13.2955C32.6375 13.1771 32.924 13.0019 33.1654 12.7699C33.4069 12.5379 33.5916 12.2515 33.7194 11.9106L35.7294 12.2728C35.5684 12.8646 35.2796 13.3831 34.8629 13.8282C34.451 14.2685 33.9325 14.6118 33.3075 14.858C32.6872 15.0995 31.9794 15.2202 31.1839 15.2202Z" fill="white"/>
<path d="M53.8118 56.1819C53.8118 62.394 52.7053 67.8005 50.4922 72.4013C48.2792 76.9828 45.2314 80.5353 41.3488 83.059C37.4856 85.5633 33.0401 86.8154 28.0121 86.8154C22.9842 86.8154 18.5289 85.5633 14.6464 83.059C10.7832 80.5353 7.74508 76.9828 5.53202 72.4013C3.33836 67.8005 2.24153 62.394 2.24153 56.1819C2.24153 49.9697 3.33836 44.573 5.53202 39.9915C7.74508 35.3907 10.7929 31.8381 14.6755 29.3338C18.5581 26.8102 23.0036 25.5483 28.0121 25.5483C33.0401 25.5483 37.4856 26.8102 41.3488 29.3338C45.2314 31.8381 48.2792 35.3907 50.4922 39.9915C52.7053 44.573 53.8118 49.9697 53.8118 56.1819ZM48.5121 56.1819C48.5121 50.8433 47.6191 46.2716 45.8332 42.4667C44.0472 38.6423 41.6109 35.7207 38.5242 33.7017C35.4376 31.6828 31.9335 30.6733 28.0121 30.6733C24.1101 30.6733 20.6158 31.6828 17.5292 33.7017C14.4425 35.7207 11.9965 38.6326 10.1911 42.4375C8.40512 46.2425 7.51213 50.8239 7.51213 56.1819C7.51213 61.5204 8.40512 66.0921 10.1911 69.8971C11.9771 73.702 14.4134 76.6236 17.5001 78.662C20.5867 80.6809 24.0907 81.6904 28.0121 81.6904C31.9335 81.6904 35.4376 80.6809 38.5242 78.662C41.6303 76.643 44.0763 73.7311 45.8623 69.9262C47.6483 66.1018 48.5315 61.5204 48.5121 56.1819Z" fill="white"/>
<path d="M61.7544 102.773V41.2728H66.7921V49.8047H67.4036C68.0248 48.4652 68.879 47.0966 69.9661 45.6989C71.0532 44.2818 72.4898 43.0879 74.2757 42.1172C76.0811 41.1466 78.3525 40.6613 81.0897 40.6613C84.7781 40.6613 88.0007 41.6319 90.7573 43.5732C93.5333 45.4951 95.6882 48.1935 97.2218 51.6684C98.7748 55.1239 99.5513 59.152 99.5513 63.7529C99.5513 68.3732 98.7748 72.4207 97.2218 75.8956C95.6882 79.3705 93.5333 82.0786 90.7573 84.0199C88.0007 85.9612 84.7975 86.9319 81.1479 86.9319C78.4495 86.9319 76.1879 86.4465 74.3631 85.4759C72.5577 84.5053 71.092 83.3114 69.9661 81.8942C68.8596 80.4577 68.0054 79.0599 67.4036 77.701H66.9377V102.773H61.7544ZM66.8794 63.6655C66.8794 67.2763 67.4133 70.4794 68.481 73.2749C69.5681 76.0509 71.1212 78.2349 73.1401 79.8268C75.1785 81.3992 77.6439 82.1854 80.5364 82.1854C83.5066 82.1854 86.0108 81.3701 88.0492 79.7394C90.107 78.0893 91.6697 75.8665 92.7374 73.0711C93.8245 70.2756 94.3681 67.1404 94.3681 63.6655C94.3681 60.2294 93.8342 57.1331 92.7665 54.3765C91.7182 51.6198 90.1652 49.4359 88.1074 47.8246C86.0497 46.1939 83.526 45.3786 80.5364 45.3786C77.6245 45.3786 75.1493 46.1648 73.111 47.7373C71.0726 49.2903 69.5196 51.4451 68.4519 54.2017C67.4036 56.939 66.8794 60.0936 66.8794 63.6655Z" fill="white"/>
<path d="M124.856 86.9319C120.683 86.9319 117.072 85.9612 114.024 84.0199C110.976 82.0592 108.617 79.3511 106.948 75.8956C105.298 72.4207 104.473 68.4217 104.473 63.8985C104.473 59.3947 105.298 55.3956 106.948 51.9013C108.617 48.3876 110.918 45.6407 113.849 43.6606C116.8 41.661 120.207 40.6613 124.07 40.6613C126.497 40.6613 128.836 41.1078 131.088 42.0008C133.34 42.8743 135.359 44.2235 137.145 46.0483C138.95 47.8537 140.377 50.1348 141.425 52.8914C142.473 55.6286 142.998 58.8705 142.998 62.6172V65.1797H108.054V60.608H137.698C137.698 57.7349 137.116 55.153 135.951 52.8623C134.805 50.5521 133.204 48.7273 131.146 47.3878C129.108 46.0483 126.749 45.3786 124.07 45.3786C121.236 45.3786 118.741 46.1357 116.586 47.6499C114.432 49.1641 112.743 51.1636 111.52 53.6485C110.316 56.1333 109.705 58.8511 109.685 61.8019V64.5391C109.685 68.0917 110.297 71.1977 111.52 73.8573C112.762 76.4974 114.519 78.5455 116.79 80.0015C119.062 81.4574 121.75 82.1854 124.856 82.1854C126.972 82.1854 128.826 81.8554 130.418 81.1954C132.029 80.5353 133.379 79.652 134.466 78.5455C135.572 77.4196 136.407 76.1868 136.97 74.8473L141.891 76.4489C141.212 78.332 140.095 80.0694 138.542 81.6613C137.009 83.2531 135.087 84.5344 132.777 85.505C130.486 86.4563 127.846 86.9319 124.856 86.9319Z" fill="white"/>
<path d="M155.454 58.0455V86H150.27V41.2728H155.308V48.2905H155.774C156.822 45.9998 158.453 44.1653 160.666 42.787C162.899 41.3892 165.655 40.6904 168.936 40.6904C171.945 40.6904 174.585 41.3213 176.856 42.5831C179.147 43.8256 180.923 45.6601 182.185 48.0867C183.467 50.5133 184.107 53.4932 184.107 57.0263V86H178.924V57.3466C178.924 53.6776 177.895 50.7754 175.837 48.64C173.799 46.5045 171.062 45.4368 167.626 45.4368C165.277 45.4368 163.19 45.9416 161.365 46.951C159.54 47.9605 158.094 49.4165 157.026 51.3189C155.978 53.202 155.454 55.4442 155.454 58.0455Z" fill="white"/>
<path d="M217.748 57.9873V62.8793H192.938V57.9873H217.748Z" fill="white"/>
<path d="M260.073 41.2728C259.743 37.9532 258.277 35.313 255.676 33.3523C253.074 31.3916 249.803 30.4113 245.863 30.4113C243.086 30.4113 240.64 30.8869 238.524 31.8381C236.428 32.7893 234.778 34.1094 233.574 35.7983C232.39 37.4678 231.798 39.3703 231.798 41.5057C231.798 43.0782 232.138 44.4565 232.817 45.6407C233.497 46.8249 234.409 47.844 235.554 48.6982C236.719 49.533 238 50.2512 239.398 50.853C240.815 51.4548 242.242 51.9596 243.679 52.3672L249.968 54.1726C251.871 54.6968 253.773 55.3665 255.676 56.1819C257.578 56.9972 259.316 58.0261 260.888 59.2685C262.48 60.4915 263.751 61.996 264.703 63.782C265.673 65.5486 266.159 67.6743 266.159 70.1591C266.159 73.3428 265.334 76.2062 263.684 78.7493C262.033 81.2924 259.665 83.3114 256.578 84.8062C253.492 86.2815 249.794 87.0192 245.484 87.0192C241.427 87.0192 237.903 86.3495 234.914 85.01C231.924 83.6511 229.575 81.7777 227.867 79.39C226.158 77.0022 225.198 74.2358 224.984 71.091H230.575C230.769 73.4399 231.546 75.4297 232.904 77.0604C234.263 78.6911 236.03 79.9335 238.204 80.7877C240.378 81.6224 242.805 82.0398 245.484 82.0398C248.454 82.0398 251.094 81.5448 253.404 80.5547C255.734 79.5453 257.559 78.1475 258.879 76.3615C260.218 74.5562 260.888 72.4596 260.888 70.0718C260.888 68.0528 260.364 66.3639 259.316 65.005C258.267 63.6267 256.802 62.4716 254.919 61.5398C253.055 60.608 250.89 59.783 248.425 59.0647L241.291 56.9681C236.612 55.5704 232.982 53.6388 230.4 51.1733C227.818 48.7079 226.527 45.563 226.527 41.7387C226.527 38.5356 227.381 35.7207 229.09 33.2941C230.818 30.8481 233.147 28.9456 236.078 27.5867C239.029 26.2084 242.339 25.5192 246.008 25.5192C249.716 25.5192 252.997 26.1987 255.85 27.5576C258.704 28.9165 260.966 30.7898 262.635 33.1776C264.324 35.546 265.227 38.2444 265.343 41.2728H260.073Z" fill="white"/>
<path d="M291.42 86.9319C287.557 86.9319 284.14 85.9515 281.17 83.9908C278.219 82.0301 275.909 79.322 274.24 75.8665C272.57 72.3916 271.735 68.3829 271.735 63.8402C271.735 59.2588 272.57 55.2306 274.24 51.7557C275.909 48.2614 278.219 45.5436 281.17 43.6023C284.14 41.6416 287.557 40.6613 291.42 40.6613C295.283 40.6613 298.69 41.6416 301.641 43.6023C304.592 45.563 306.902 48.2808 308.571 51.7557C310.26 55.2306 311.105 59.2588 311.105 63.8402C311.105 68.3829 310.27 72.3916 308.6 75.8665C306.931 79.322 304.611 82.0301 301.641 83.9908C298.69 85.9515 295.283 86.9319 291.42 86.9319ZM291.42 82.1854C294.526 82.1854 297.157 81.3507 299.311 79.6812C301.466 78.0116 303.097 75.7889 304.203 73.0128C305.329 70.2368 305.892 67.1793 305.892 63.8402C305.892 60.5012 305.329 57.434 304.203 54.6385C303.097 51.8431 301.466 49.6009 299.311 47.912C297.157 46.2231 294.526 45.3786 291.42 45.3786C288.333 45.3786 285.703 46.2231 283.529 47.912C281.374 49.6009 279.733 51.8431 278.608 54.6385C277.501 57.434 276.948 60.5012 276.948 63.8402C276.948 67.1793 277.501 70.2368 278.608 73.0128C279.733 75.7889 281.374 78.0116 283.529 79.6812C285.684 81.3507 288.314 82.1854 291.42 82.1854Z" fill="white"/>
<path d="M346.754 68.907V41.2728H351.938V86H346.754V78.5746H346.347C345.298 80.8653 343.639 82.7775 341.367 84.3111C339.096 85.8253 336.32 86.5824 333.039 86.5824C330.185 86.5824 327.652 85.9612 325.439 84.7188C323.226 83.457 321.488 81.6127 320.227 79.1861C318.965 76.7595 318.334 73.7796 318.334 70.2465V41.2728H323.517V69.9262C323.517 73.4205 324.546 76.2354 326.604 78.3708C328.661 80.4868 331.302 81.5448 334.524 81.5448C336.543 81.5448 338.484 81.0595 340.348 80.0888C342.212 79.1182 343.745 77.701 344.949 75.8374C346.153 73.9544 346.754 71.6442 346.754 68.907Z" fill="white"/>
<path d="M361.511 86V41.2728H366.548V48.1449H366.927C367.82 45.893 369.373 44.0779 371.586 42.6996C373.819 41.3019 376.342 40.603 379.157 40.603C379.584 40.603 380.06 40.6127 380.584 40.6321C381.108 40.6516 381.545 40.671 381.894 40.6904V45.961C381.661 45.9222 381.254 45.8639 380.671 45.7863C380.089 45.7086 379.458 45.6698 378.779 45.6698C376.449 45.6698 374.372 46.1648 372.547 47.1549C370.742 48.1255 369.315 49.4747 368.267 51.2025C367.218 52.9302 366.694 54.9006 366.694 57.1137V86H361.511Z" fill="white"/>
<path d="M402.7 86.9319C398.701 86.9319 395.217 85.9321 392.247 83.9326C389.296 81.933 387.005 79.1958 385.374 75.7209C383.744 72.246 382.928 68.2858 382.928 63.8402C382.928 59.3559 383.753 55.3665 385.404 51.8722C387.073 48.3779 389.383 45.6407 392.334 43.6606C395.285 41.661 398.711 40.6613 402.613 40.6613C405.603 40.6613 408.311 41.2437 410.737 42.4084C413.164 43.5538 415.163 45.1748 416.736 47.2714C418.328 49.3485 419.328 51.7751 419.735 54.5512H414.494C413.95 52.0275 412.64 49.8727 410.563 48.0867C408.505 46.2813 405.884 45.3786 402.7 45.3786C399.847 45.3786 397.323 46.1551 395.129 47.7081C392.936 49.2418 391.218 51.3869 389.975 54.1435C388.752 56.8807 388.141 60.0547 388.141 63.6655C388.141 67.2957 388.743 70.5086 389.946 73.304C391.15 76.0801 392.839 78.2543 395.013 79.8268C397.207 81.3992 399.769 82.1854 402.7 82.1854C404.681 82.1854 406.486 81.8166 408.117 81.0789C409.767 80.3218 411.145 79.2541 412.252 77.8758C413.377 76.4974 414.135 74.8571 414.523 72.9546H419.764C419.376 75.653 418.415 78.0602 416.882 80.1762C415.367 82.2728 413.397 83.9229 410.97 85.1265C408.563 86.3301 405.806 86.9319 402.7 86.9319Z" fill="white"/>
<path d="M444.807 86.9319C440.633 86.9319 437.023 85.9612 433.975 84.0199C430.927 82.0592 428.568 79.3511 426.899 75.8956C425.249 72.4207 424.424 68.4217 424.424 63.8985C424.424 59.3947 425.249 55.3956 426.899 51.9013C428.568 48.3876 430.869 45.6407 433.8 43.6606C436.751 41.661 440.158 40.6613 444.021 40.6613C446.448 40.6613 448.787 41.1078 451.039 42.0008C453.291 42.8743 455.31 44.2235 457.096 46.0483C458.901 47.8537 460.328 50.1348 461.376 52.8914C462.424 55.6286 462.949 58.8705 462.949 62.6172V65.1797H428.005V60.608H457.649C457.649 57.7349 457.066 55.153 455.902 52.8623C454.756 50.5521 453.155 48.7273 451.097 47.3878C449.059 46.0483 446.7 45.3786 444.021 45.3786C441.187 45.3786 438.692 46.1357 436.537 47.6499C434.383 49.1641 432.694 51.1636 431.471 53.6485C430.267 56.1333 429.655 58.8511 429.636 61.8019V64.5391C429.636 68.0917 430.248 71.1977 431.471 73.8573C432.713 76.4974 434.47 78.5455 436.741 80.0015C439.012 81.4574 441.701 82.1854 444.807 82.1854C446.923 82.1854 448.777 81.8554 450.369 81.1954C451.98 80.5353 453.329 79.652 454.417 78.5455C455.523 77.4196 456.358 76.1868 456.921 74.8473L461.842 76.4489C461.163 78.332 460.046 80.0694 458.493 81.6613C456.96 83.2531 455.038 84.5344 452.728 85.505C450.437 86.4563 447.797 86.9319 444.807 86.9319Z" fill="white"/>
<path d="M51.6279 129H46.1535C45.7458 126.962 45.0081 125.079 43.9404 123.351C42.8921 121.604 41.572 120.08 39.9802 118.779C38.3883 117.479 36.5829 116.469 34.564 115.751C32.545 115.032 30.3611 114.673 28.0121 114.673C24.246 114.673 20.81 115.654 17.7039 117.614C14.6172 119.575 12.1421 122.458 10.2785 126.263C8.43424 130.048 7.51213 134.688 7.51213 140.182C7.51213 145.715 8.43424 150.374 10.2785 154.159C12.1421 157.945 14.6172 160.818 17.7039 162.778C20.81 164.72 24.246 165.69 28.0121 165.69C30.3611 165.69 32.545 165.331 34.564 164.613C36.5829 163.895 38.3883 162.895 39.9802 161.614C41.572 160.313 42.8921 158.789 43.9404 157.042C45.0081 155.295 45.7458 153.402 46.1535 151.364H51.6279C51.1426 154.101 50.2302 156.654 48.8907 159.022C47.5706 161.371 45.8817 163.429 43.8239 165.195C41.7856 166.962 39.4366 168.34 36.777 169.33C34.1175 170.32 31.1958 170.815 28.0121 170.815C23.0036 170.815 18.5581 169.563 14.6755 167.059C10.7929 164.535 7.74508 160.983 5.53202 156.401C3.33836 151.82 2.24153 146.413 2.24153 140.182C2.24153 133.95 3.33836 128.544 5.53202 123.962C7.74508 119.381 10.7929 115.838 14.6755 113.334C18.5581 110.81 23.0036 109.548 28.0121 109.548C31.1958 109.548 34.1175 110.043 36.777 111.033C39.4366 112.004 41.7856 113.382 43.8239 115.168C45.8817 116.935 47.5706 118.993 48.8907 121.342C50.2302 123.691 51.1426 126.243 51.6279 129Z" fill="white"/>
<path d="M64.3752 110.364V170H59.1919V110.364H64.3752Z" fill="white"/>
<path d="M102.362 152.907V125.273H107.545V170H102.362V162.575H101.954C100.906 164.865 99.2459 166.778 96.9746 168.311C94.7032 169.825 91.9272 170.582 88.6464 170.582C85.7927 170.582 83.2594 169.961 81.0463 168.719C78.8332 167.457 77.0958 165.613 75.8339 163.186C74.5721 160.76 73.9412 157.78 73.9412 154.246V125.273H79.1244V153.926C79.1244 157.42 80.1533 160.235 82.2111 162.371C84.2688 164.487 86.909 165.545 90.1315 165.545C92.1505 165.545 94.0917 165.059 95.9554 164.089C97.819 163.118 99.3526 161.701 100.556 159.837C101.76 157.954 102.362 155.644 102.362 152.907Z" fill="white"/>
<path d="M118.196 170V110.364H123.408V133.805H123.874C124.456 132.465 125.291 131.087 126.378 129.67C127.485 128.253 128.931 127.068 130.717 126.117C132.522 125.147 134.794 124.661 137.531 124.661C141.2 124.661 144.422 125.632 147.198 127.573C149.974 129.495 152.139 132.193 153.692 135.668C155.245 139.124 156.022 143.152 156.022 147.753C156.022 152.373 155.245 156.421 153.692 159.896C152.158 163.371 150.004 166.079 147.228 168.02C144.471 169.961 141.268 170.932 137.618 170.932C134.9 170.932 132.629 170.447 130.804 169.476C128.999 168.505 127.543 167.311 126.436 165.894C125.33 164.458 124.476 163.06 123.874 161.701H123.233V170H118.196ZM123.321 147.666C123.321 151.276 123.854 154.479 124.922 157.275C126.009 160.051 127.562 162.235 129.581 163.827C131.62 165.399 134.085 166.185 136.978 166.185C139.948 166.185 142.462 165.37 144.519 163.739C146.577 162.089 148.14 159.867 149.208 157.071C150.275 154.276 150.809 151.14 150.809 147.666C150.809 144.229 150.275 141.133 149.208 138.376C148.159 135.62 146.606 133.436 144.549 131.825C142.491 130.194 139.967 129.379 136.978 129.379C134.066 129.379 131.59 130.165 129.552 131.737C127.533 133.29 125.99 135.445 124.922 138.202C123.854 140.939 123.321 144.094 123.321 147.666Z" fill="white"/>
<path d="M215.251 176.901C209.699 176.901 204.71 176.047 200.284 174.339C195.857 172.63 192.082 170.175 188.956 166.972C185.85 163.749 183.462 159.876 181.793 155.353C180.143 150.83 179.318 145.773 179.318 140.182C179.318 134.707 180.152 129.738 181.822 125.273C183.511 120.808 185.908 116.974 189.014 113.771C192.14 110.568 195.867 108.102 200.196 106.374C204.545 104.627 209.378 103.754 214.698 103.754C219.9 103.754 224.559 104.666 228.675 106.491C232.79 108.296 236.294 110.762 239.187 113.887C242.079 117.013 244.283 120.575 245.797 124.574C247.331 128.554 248.097 132.718 248.097 137.066C248.097 139.823 247.884 142.541 247.457 145.219C247.049 147.898 246.341 150.325 245.331 152.499C244.322 154.674 242.924 156.411 241.138 157.712C239.352 158.993 237.09 159.634 234.353 159.634C232.917 159.634 231.499 159.401 230.102 158.935C228.723 158.449 227.539 157.663 226.549 156.576C225.579 155.47 225.016 153.994 224.86 152.15H224.569C223.948 153.548 223.074 154.829 221.948 155.994C220.822 157.139 219.434 158.051 217.784 158.731C216.154 159.41 214.261 159.721 212.106 159.663C209.66 159.604 207.457 159.061 205.496 158.032C203.555 157.003 201.895 155.596 200.516 153.81C199.158 152.024 198.119 149.956 197.401 147.607C196.682 145.239 196.323 142.686 196.323 139.949C196.323 137.309 196.721 134.872 197.517 132.64C198.333 130.407 199.449 128.456 200.866 126.787C202.302 125.117 203.982 123.788 205.904 122.798C207.825 121.808 209.893 121.235 212.106 121.08C214.086 120.944 215.911 121.138 217.58 121.662C219.25 122.167 220.667 122.904 221.832 123.875C222.997 124.846 223.831 125.943 224.336 127.166H224.627V121.895H229.374V148.889C229.374 150.927 229.772 152.519 230.568 153.664C231.383 154.79 232.664 155.353 234.411 155.353C236.527 155.353 238.245 154.664 239.565 153.286C240.905 151.888 241.885 149.83 242.507 147.112C243.128 144.375 243.438 141.007 243.438 137.008C243.438 133.979 243.011 131.048 242.157 128.214C241.322 125.36 240.099 122.72 238.488 120.293C236.877 117.847 234.897 115.712 232.548 113.887C230.199 112.043 227.51 110.606 224.482 109.577C221.473 108.549 218.134 108.034 214.465 108.034C209.922 108.034 205.797 108.801 202.089 110.335C198.381 111.868 195.188 114.062 192.509 116.916C189.849 119.769 187.801 123.176 186.365 127.136C184.928 131.077 184.21 135.474 184.21 140.327C184.21 145.239 184.928 149.675 186.365 153.635C187.801 157.595 189.869 160.983 192.567 163.798C195.285 166.612 198.565 168.777 202.409 170.291C206.253 171.805 210.582 172.563 215.396 172.563C217.532 172.563 219.628 172.349 221.686 171.922C223.763 171.514 225.646 171.01 227.335 170.408C229.044 169.806 230.422 169.214 231.47 168.631L232.955 172.708C231.519 173.485 229.811 174.193 227.83 174.834C225.87 175.474 223.793 175.979 221.599 176.348C219.425 176.717 217.309 176.901 215.251 176.901ZM212.717 155.091C215.358 155.091 217.58 154.479 219.386 153.256C221.191 152.033 222.55 150.277 223.463 147.986C224.394 145.695 224.86 142.938 224.86 139.716C224.86 136.474 224.365 133.805 223.375 131.708C222.405 129.612 221.016 128.059 219.211 127.049C217.425 126.02 215.309 125.506 212.863 125.506C210.495 125.506 208.418 126.156 206.632 127.457C204.865 128.738 203.477 130.456 202.467 132.611C201.477 134.766 200.982 137.134 200.982 139.716C200.982 142.453 201.419 144.987 202.293 147.316C203.186 149.646 204.496 151.529 206.224 152.965C207.971 154.382 210.136 155.091 212.717 155.091Z" fill="white"/>
<path d="M274.895 170H269.188L290.882 110.364H296.705L318.399 170H312.692L293.997 117.44H293.59L274.895 170ZM279.001 147.141H308.586V152.033H279.001V147.141Z" fill="white"/>
<path d="M364.219 110.364H369.664V149.849C369.664 153.907 368.713 157.537 366.811 160.74C364.908 163.924 362.258 166.438 358.861 168.282C355.483 170.107 351.552 171.019 347.068 171.019C342.603 171.019 338.672 170.097 335.274 168.253C331.877 166.409 329.227 163.895 327.325 160.711C325.422 157.527 324.471 153.907 324.471 149.849V110.364H329.916V149.471C329.916 152.635 330.625 155.46 332.042 157.945C333.459 160.41 335.449 162.351 338.012 163.769C340.593 165.186 343.612 165.894 347.068 165.894C350.523 165.894 353.542 165.186 356.124 163.769C358.706 162.351 360.695 160.41 362.093 157.945C363.51 155.46 364.219 152.635 364.219 149.471V110.364Z" fill="white"/>
<path d="M413.722 125.273C413.392 121.953 411.926 119.313 409.325 117.352C406.724 115.392 403.453 114.411 399.512 114.411C396.736 114.411 394.29 114.887 392.174 115.838C390.077 116.789 388.427 118.109 387.223 119.798C386.039 121.468 385.447 123.37 385.447 125.506C385.447 127.078 385.787 128.456 386.466 129.641C387.146 130.825 388.058 131.844 389.204 132.698C390.368 133.533 391.65 134.251 393.047 134.853C394.464 135.455 395.891 135.96 397.328 136.367L403.618 138.173C405.52 138.697 407.423 139.367 409.325 140.182C411.228 140.997 412.965 142.026 414.537 143.269C416.129 144.492 417.401 145.996 418.352 147.782C419.323 149.549 419.808 151.674 419.808 154.159C419.808 157.343 418.983 160.206 417.333 162.749C415.683 165.292 413.314 167.311 410.228 168.806C407.141 170.282 403.443 171.019 399.133 171.019C395.076 171.019 391.553 170.349 388.563 169.01C385.573 167.651 383.224 165.778 381.516 163.39C379.808 161.002 378.847 158.236 378.633 155.091H384.224C384.418 157.44 385.195 159.43 386.554 161.06C387.913 162.691 389.679 163.934 391.853 164.788C394.028 165.622 396.454 166.04 399.133 166.04C402.103 166.04 404.744 165.545 407.054 164.555C409.383 163.545 411.208 162.148 412.528 160.362C413.868 158.556 414.537 156.46 414.537 154.072C414.537 152.053 414.013 150.364 412.965 149.005C411.917 147.627 410.451 146.472 408.568 145.54C406.704 144.608 404.54 143.783 402.074 143.065L394.94 140.968C390.262 139.57 386.631 137.639 384.049 135.173C381.468 132.708 380.177 129.563 380.177 125.739C380.177 122.536 381.031 119.721 382.739 117.294C384.467 114.848 386.796 112.946 389.728 111.587C392.679 110.208 395.988 109.519 399.657 109.519C403.365 109.519 406.646 110.199 409.5 111.558C412.353 112.916 414.615 114.79 416.285 117.178C417.973 119.546 418.876 122.244 418.993 125.273H413.722Z" fill="white"/>
<path d="M22.0078 42.435C21.5638 42.435 21.2085 42.5462 20.9421 42.7687C20.6979 42.9911 20.5203 43.3693 20.4093 43.9033C20.3205 44.415 20.2761 45.1269 20.2761 46.039V50.6107C20.2761 51.8566 20.1651 52.8354 19.9431 53.5473C19.721 54.2592 19.4435 54.7932 19.1105 55.1491C18.7775 55.5051 18.4333 55.7831 18.0781 55.9834C18.4333 56.2058 18.7775 56.5062 19.1105 56.8844C19.4435 57.2403 19.721 57.7631 19.9431 58.4528C20.1651 59.1202 20.2761 60.0434 20.2761 61.2225V65.9611C20.2761 66.8732 20.3205 67.5963 20.4093 68.1302C20.5203 68.6641 20.6979 69.0423 20.9421 69.2648C21.2085 69.4873 21.5638 69.5985 22.0078 69.5985H23.7395V71H22.1077C21.6193 71 21.1641 70.9778 20.7423 70.9333C20.3205 70.8888 19.9542 70.7331 19.6433 70.4661C19.3325 70.1992 19.0883 69.732 18.9107 69.0646C18.7331 68.3972 18.6443 67.4294 18.6443 66.1613V61.1224C18.6443 60.4995 18.5665 59.8655 18.4111 59.2203C18.2557 58.5529 17.9782 57.9856 17.5786 57.5184C17.2011 57.0512 16.6683 56.8065 15.9801 56.7843V55.1825C16.6683 55.138 17.2011 54.8933 17.5786 54.4483C17.9782 53.9811 18.2557 53.4138 18.4111 52.7464C18.5665 52.079 18.6443 51.4339 18.6443 50.8109V44.9711C18.6443 43.9478 18.7442 43.158 18.944 42.6018C19.1438 42.0457 19.3991 41.6563 19.7099 41.4339C20.043 41.2114 20.4204 41.089 20.8422 41.0668C21.2641 41.0223 21.6859 41 22.1077 41H23.7395V42.435H22.0078Z" fill="white"/>
<path d="M33.9856 69.5985C34.4518 69.5985 34.8071 69.4873 35.0513 69.2648C35.2955 69.0423 35.462 68.6641 35.5508 68.1302C35.6618 67.5963 35.7173 66.8732 35.7173 65.9611V60.4884C35.7173 59.5317 35.8394 58.7531 36.0837 58.1524C36.3501 57.5518 36.6498 57.0846 36.9828 56.7509C37.3381 56.4172 37.6489 56.1725 37.9153 56.0167C37.5823 55.7943 37.2381 55.5051 36.8829 55.1491C36.5499 54.7932 36.2724 54.2703 36.0504 53.5807C35.8283 52.891 35.7173 51.9567 35.7173 50.7776V46.039C35.7173 45.1046 35.6618 44.3816 35.5508 43.8699C35.462 43.336 35.2955 42.9689 35.0513 42.7687C34.8071 42.5462 34.4518 42.435 33.9856 42.435H32.2539V41H33.8524C34.2964 41 34.7183 41.0223 35.1179 41.0668C35.5397 41.089 35.9172 41.2114 36.2502 41.4339C36.5832 41.6563 36.8496 42.0457 37.0494 42.6018C37.2492 43.1358 37.3492 43.9255 37.3492 44.9711V50.0101C37.3492 50.4105 37.3714 50.8999 37.4158 51.4784C37.4602 52.0568 37.5601 52.6241 37.7155 53.1802C37.8709 53.7364 38.1262 54.2147 38.4814 54.6152C38.8589 54.9934 39.3584 55.1936 39.9801 55.2158V56.851C39.3584 56.8732 38.8589 57.0846 38.4814 57.485C38.1262 57.8632 37.8709 58.3304 37.7155 58.8866C37.5601 59.4428 37.4602 60.0101 37.4158 60.5885C37.3714 61.1669 37.3492 61.6563 37.3492 62.0568V67.0623C37.3492 68.0857 37.2492 68.8755 37.0494 69.4316C36.8496 69.9878 36.5832 70.366 36.2502 70.5662C35.9172 70.7887 35.5397 70.9111 35.1179 70.9333C34.7183 70.9778 34.2964 71 33.8524 71H32.2539V69.5985H33.9856Z" fill="white"/>
</svg>
