<svg width="69" height="26" viewBox="0 0 69 26" fill="none" xmlns="http://www.w3.org/2000/svg">
<path d="M21.6214 12.9877C21.6214 15.5893 21.1639 17.8627 20.249 19.8078C19.3341 21.7446 18.0615 23.2506 16.4312 24.3258C14.8093 25.4009 12.9379 25.9384 10.8169 25.9384C8.68764 25.9384 6.80788 25.4009 5.17765 24.3258C3.55574 23.2424 2.28732 21.7323 1.37239 19.7955C0.457463 17.8504 0 15.5811 0 12.9877C0 10.386 0.457463 8.11679 1.37239 6.17992C2.29563 4.24305 3.56821 2.73706 5.19013 1.66193C6.81204 0.578598 8.68764 0.0369309 10.8169 0.0369309C12.9379 0.0369309 14.8093 0.574494 16.4312 1.64962C18.0615 2.72475 19.3341 4.23485 20.249 6.17992C21.1639 8.11679 21.6214 10.386 21.6214 12.9877ZM20.0993 12.9877C20.0993 10.6487 19.7 8.62153 18.9015 6.90625C18.1114 5.19097 17.0176 3.86553 15.6203 2.92992C14.2229 1.98611 12.6218 1.5142 10.8169 1.5142C9.01202 1.5142 7.4109 1.98201 6.01356 2.91761C4.61622 3.84501 3.51831 5.17045 2.71983 6.89394C1.92966 8.60922 1.53458 10.6405 1.53458 12.9877C1.53458 15.3103 1.9255 17.3333 2.70735 19.0568C3.49751 20.7721 4.59127 22.1016 5.98861 23.0455C7.38595 23.9893 8.99539 24.4612 10.8169 24.4612C12.6218 24.4612 14.2229 23.9934 15.6203 23.0578C17.0176 22.114 18.1114 20.7844 18.9015 19.0691C19.7 17.3538 20.0993 15.3267 20.0993 12.9877Z" fill="#D7D7D7"/>
<path d="M41.4898 6.68466C41.3568 5.11711 40.708 3.84912 39.5435 2.88068C38.3874 1.91225 36.8902 1.42803 35.0521 1.42803C33.8128 1.42803 32.7107 1.65372 31.7459 2.10511C30.781 2.5565 30.0241 3.17203 29.4752 3.9517C28.9262 4.73138 28.6517 5.62595 28.6517 6.63542C28.6517 7.28377 28.7765 7.87058 29.026 8.39583C29.2839 8.91288 29.6457 9.37658 30.1115 9.78693C30.5773 10.1891 31.1304 10.542 31.7708 10.8456C32.4113 11.1493 33.1183 11.416 33.8918 11.6458L36.6865 12.4583C37.643 12.7456 38.5246 13.078 39.3314 13.4555C40.1466 13.833 40.8535 14.2844 41.4524 14.8097C42.0596 15.3267 42.5295 15.934 42.8622 16.6316C43.2032 17.3292 43.3737 18.1335 43.3737 19.0445C43.3737 20.3741 43.0244 21.5641 42.3257 22.6146C41.6354 23.6651 40.6498 24.494 39.3689 25.1013C38.0963 25.7004 36.595 26 34.8649 26C33.2181 26 31.7833 25.7251 30.5606 25.1752C29.3463 24.6253 28.3856 23.8621 27.6786 22.8854C26.9716 21.9006 26.5724 20.768 26.4809 19.4877H28.0778C28.161 20.53 28.4979 21.4328 29.0884 22.196C29.6873 22.9511 30.4816 23.5338 31.4714 23.9441C32.4612 24.3545 33.5924 24.5597 34.8649 24.5597C36.2373 24.5597 37.4475 24.3299 38.4955 23.8703C39.5435 23.4025 40.3628 22.7541 40.9534 21.9252C41.5439 21.0963 41.8392 20.1319 41.8392 19.0322C41.8392 18.1458 41.6271 17.3867 41.2029 16.7547C40.7787 16.1228 40.1507 15.577 39.319 15.1174C38.4955 14.6578 37.4725 14.2475 36.2498 13.8864L33.268 13C31.2718 12.4009 29.7455 11.5843 28.6892 10.5502C27.6412 9.5161 27.1172 8.22759 27.1172 6.68466C27.1172 5.38794 27.4665 4.23895 28.1652 3.23769C28.8638 2.22822 29.812 1.43624 31.0098 0.861742C32.2158 0.287247 33.5757 0 35.0895 0C36.6116 0 37.9549 0.291351 39.1193 0.874053C40.2838 1.44855 41.207 2.24053 41.8891 3.25C42.5711 4.25126 42.9496 5.39615 43.0244 6.68466H41.4898Z" fill="#D7D7D7"/>
<path d="M69 8.26042H67.403C67.2367 7.40688 66.9248 6.58207 66.4673 5.78598C66.0099 4.98169 65.4193 4.25947 64.6957 3.61932C63.9804 2.97096 63.1486 2.45802 62.2004 2.08049C61.2522 1.70297 60.2042 1.5142 59.0564 1.5142C57.3763 1.5142 55.8292 1.95739 54.4152 2.84375C53.0096 3.72191 51.8826 5.01452 51.0342 6.72159C50.1941 8.42866 49.7741 10.5174 49.7741 12.9877C49.7741 15.4744 50.1941 17.5713 51.0342 19.2784C51.8826 20.9855 53.0096 22.2781 54.4152 23.1562C55.8292 24.0262 57.3763 24.4612 59.0564 24.4612C60.2042 24.4612 61.2522 24.2765 62.2004 23.9072C63.1486 23.5297 63.9804 23.0208 64.6957 22.3807C65.4193 21.7323 66.0099 21.006 66.4673 20.2017C66.9248 19.3974 67.2367 18.5685 67.403 17.715H69C68.817 18.7326 68.4635 19.7298 67.9395 20.7064C67.4238 21.6831 66.7418 22.5694 65.8934 23.3655C65.0533 24.1534 64.0594 24.7812 62.9116 25.2491C61.7721 25.7086 60.487 25.9384 59.0564 25.9384C56.9271 25.9384 55.0515 25.405 53.4296 24.3381C51.8077 23.2629 50.5351 21.7528 49.6119 19.8078C48.697 17.8627 48.2395 15.5893 48.2395 12.9877C48.2395 10.386 48.697 8.11269 49.6119 6.16761C50.5351 4.22254 51.8077 2.71654 53.4296 1.64962C55.0515 0.574494 56.9271 0.0369309 59.0564 0.0369309C60.487 0.0369309 61.7721 0.270833 62.9116 0.738636C64.0594 1.19823 65.0533 1.82197 65.8934 2.60985C66.7418 3.38952 67.4238 4.26768 67.9395 5.24432C68.4635 6.22096 68.817 7.22633 69 8.26042Z" fill="#D7D7D7"/>
<path d="M8.19604 7.35446C8.00866 7.35446 7.85876 7.40068 7.74633 7.49313C7.64327 7.58557 7.56832 7.74273 7.52148 7.96459C7.484 8.17722 7.46527 8.47304 7.46527 8.85206V10.7518C7.46527 11.2695 7.41842 11.6762 7.32473 11.9721C7.23105 12.2679 7.11393 12.4897 6.9734 12.6377C6.83287 12.7856 6.68765 12.9011 6.53775 12.9843C6.68765 13.0768 6.83287 13.2016 6.9734 13.3587C7.11393 13.5066 7.23105 13.7239 7.32473 14.0105C7.41842 14.2878 7.46527 14.6714 7.46527 15.1614V17.1305C7.46527 17.5095 7.484 17.8099 7.52148 18.0318C7.56832 18.2537 7.64327 18.4108 7.74633 18.5033C7.85876 18.5957 8.00866 18.6419 8.19604 18.6419H8.92681V19.2243H8.2382C8.03208 19.2243 7.84002 19.2151 7.66201 19.1966C7.484 19.1781 7.32942 19.1134 7.19825 19.0025C7.06709 18.8915 6.96403 18.6974 6.88908 18.4201C6.81413 18.1427 6.77666 17.7406 6.77666 17.2137V15.1198C6.77666 14.8609 6.74387 14.5975 6.67828 14.3294C6.6127 14.0521 6.49559 13.8163 6.32695 13.6222C6.16768 13.4281 5.94283 13.3264 5.65239 13.3171V12.6515C5.94283 12.633 6.16768 12.5314 6.32695 12.3465C6.49559 12.1523 6.6127 11.9166 6.67828 11.6393C6.74387 11.3619 6.77666 11.0938 6.77666 10.835V8.40833C6.77666 7.98308 6.81882 7.6549 6.90314 7.42379C6.98746 7.19268 7.0952 7.0309 7.22636 6.93846C7.36689 6.84602 7.52616 6.79517 7.70417 6.78593C7.88218 6.76744 8.06019 6.75819 8.2382 6.75819H8.92681V7.35446H8.19604Z" fill="#D7D7D7"/>
<path d="M13.2505 18.6419C13.4473 18.6419 13.5972 18.5957 13.7002 18.5033C13.8033 18.4108 13.8736 18.2537 13.911 18.0318C13.9579 17.8099 13.9813 17.5095 13.9813 17.1305V14.8563C13.9813 14.4588 14.0328 14.1353 14.1359 13.8857C14.2483 13.6361 14.3748 13.4419 14.5153 13.3033C14.6652 13.1646 14.7964 13.0629 14.9088 12.9982C14.7683 12.9058 14.6231 12.7856 14.4732 12.6377C14.3326 12.4897 14.2155 12.2725 14.1218 11.9859C14.0281 11.6993 13.9813 11.3111 13.9813 10.8211V8.85206C13.9813 8.46379 13.9579 8.16335 13.911 7.95073C13.8736 7.72886 13.8033 7.57633 13.7002 7.49313C13.5972 7.40068 13.4473 7.35446 13.2505 7.35446H12.5198V6.75819H13.1943C13.3817 6.75819 13.5597 6.76744 13.7283 6.78593C13.9063 6.79517 14.0656 6.84602 14.2062 6.93846C14.3467 7.0309 14.4591 7.19268 14.5434 7.42379C14.6277 7.64566 14.6699 7.97384 14.6699 8.40833V10.5022C14.6699 10.6686 14.6793 10.872 14.698 11.1123C14.7168 11.3527 14.7589 11.5884 14.8245 11.8195C14.8901 12.0506 14.9978 12.2494 15.1477 12.4158C15.307 12.5729 15.5178 12.6561 15.7801 12.6654V13.3449C15.5178 13.3541 15.307 13.4419 15.1477 13.6083C14.9978 13.7655 14.8901 13.9596 14.8245 14.1907C14.7589 14.4218 14.7168 14.6576 14.698 14.8979C14.6793 15.1383 14.6699 15.3417 14.6699 15.5081V17.5881C14.6699 18.0133 14.6277 18.3415 14.5434 18.5726C14.4591 18.8037 14.3467 18.9609 14.2062 19.0441C14.0656 19.1365 13.9063 19.1873 13.7283 19.1966C13.5597 19.2151 13.3817 19.2243 13.1943 19.2243H12.5198V18.6419H13.2505Z" fill="#D7D7D7"/>
</svg>
